<?xml version="1.0" encoding="utf-8"?>
<!-- Svg Vector Icons : http://www.onlinewebfonts.com/icon -->
<!DOCTYPE svg PUBLIC "-//W3C//DTD SVG 1.1//EN" "http://www.w3.org/Graphics/SVG/1.1/DTD/svg11.dtd">
<svg version="1.1" xmlns="http://www.w3.org/2000/svg" xmlns:xlink="http://www.w3.org/1999/xlink" x="0px" y="0px" viewBox="0 0 1000 1000" enable-background="new 0 0 1000 1000" fill="white" xml:space="preserve">
<metadata> Svg Vector Icons : http://www.onlinewebfonts.com/icon </metadata>
<g><path d="M365.4,396.9v318.3h-106V396.9H365.4z M372.2,298.7c0.2,15.6-5.2,28.7-16.2,39.2c-11,10.5-25.5,15.7-43.5,15.7h-0.6c-17.6,0-31.7-5.2-42.4-15.7c-10.7-10.5-16.1-23.6-16.1-39.2c0-15.8,5.5-29,16.5-39.3c11-10.4,25.4-15.6,43.2-15.6s32,5.2,42.7,15.6C366.5,269.7,372,282.8,372.2,298.7L372.2,298.7z M746.7,532.8v182.4H641V545c0-22.5-4.3-40.1-13-52.8c-8.7-12.7-22.2-19.1-40.6-19.1c-13.5,0-24.8,3.7-33.9,11.1c-9.1,7.4-15.9,16.5-20.4,27.5c-2.4,6.4-3.5,15.1-3.5,26v177.6H423.9c0.4-85.4,0.6-154.7,0.6-207.8s-0.1-84.8-0.3-95.1l-0.3-15.4h105.7v46.3h-0.6c4.3-6.9,8.7-12.8,13.2-18c4.5-5.1,10.5-10.7,18.2-16.7c7.6-6,16.9-10.6,27.9-14c11-3.3,23.3-5,36.8-5c36.6,0,66.1,12.1,88.3,36.4C735.5,450.3,746.7,485.9,746.7,532.8L746.7,532.8z"/><path d="M500,10C229.4,10,10,229.3,10,500c0,270.6,219.4,490,490,490s490-219.5,490-490C990,229.3,770.7,10,500,10z M826.6,826.6c-42.4,42.4-91.7,75.7-146.7,99c-56.9,24.1-117.3,36.3-179.8,36.3c-62.3,0-122.9-12.2-179.8-36.3c-55-23.2-104.4-56.5-146.8-99c-42.4-42.4-75.7-91.9-99-146.9C50.4,622.9,38.2,562.3,38.2,500c0-62.3,12.2-122.8,36.3-179.8c23.2-55,56.6-104.3,99-146.8c42.4-42.4,91.8-75.7,146.8-99c57-24,117.5-36.3,179.8-36.3c62.4,0,122.9,12.3,179.8,36.3c55,23.2,104.3,56.6,146.7,99c42.4,42.5,75.7,91.8,99.1,146.8c24,56.9,36.3,117.3,36.3,179.8c0,62.4-12.3,123-36.3,179.8C902.3,734.7,869,784.2,826.6,826.6z"/></g>
</svg>